<?xml version="1.0" encoding="iso-8859-1"?>
<!-- Uploaded to: SVG Repo, www.svgrepo.com, Generator: SVG Repo Mixer Tools -->
<svg height="800px" width="800px" version="1.1" id="Layer_1" xmlns="http://www.w3.org/2000/svg" xmlns:xlink="http://www.w3.org/1999/xlink" 
	 viewBox="0 0 508 508" xml:space="preserve">
<path style="fill:#7D8B95;" d="M254,502c136.8,0,248-111.2,248-248S390.8,6,254,6S6,117.2,6,254S117.2,502,254,502z M254,33.6
	c51.2,0,101.2,18,138.8,52.4l28,28C456,152.4,474,202.4,474,253.6C474,375.2,375.2,474,253.6,474S33.2,375.2,33.2,253.6
	S132.4,33.6,254,33.6z"/>
<path style="fill:#CDEEF9;" d="M254,470.4c119.2,0,216.4-97.2,216.4-216.4c0-50.4-18-99.6-48.4-139.2l-28-28
	c-40.4-31.2-89.6-49.2-140-49.2C134.8,37.6,37.6,134.8,37.6,254S134.8,470.4,254,470.4z M137.6,368L218,218.4l0,0c0,0,0-0.4,0.4-0.4
	c0,0,0.4,0,0.4-0.4l0,0l149.6-80.4c0.8-0.4,1.6-0.4,2.4,0.4c0.8,0.8,0.8,1.6,0.4,2.4l-80.4,149.6c0,0.4-0.4,0.8-0.8,0.8l-149.6,80.4
	c-0.4,0-0.8,0.4-0.8,0.4c-0.4,0-1.2,0-1.6-0.4C137.2,369.6,137.2,368.8,137.6,368z"/>
<path style="fill:#54B265;" d="M254,276c-12,0-22-10-22-22c0-5.2,2-10.4,5.2-14L220,222.8L144,364l141.2-76L268,270.8
	C264.4,274,259.2,276,254,276z"/>
<path style="fill:#DF5C4E;" d="M222.8,220l17.2,17.2c4-3.2,8.8-5.2,14-5.2c12,0,22,10,22,22c0,5.2-2,10-5.2,14l17.2,17.2L364,144
	L222.8,220z"/>
<path style="fill:#F4EFEF;" d="M254,236c-10,0-18,8-18,18s8,18,18,18s18-8,18-18S264,236,254,236z"/>
<path d="M139.2,372.8c-1.2,0-2-0.4-2.8-1.2c-1.2-1.2-1.6-3.2-0.8-4.8L216,217.2c0.4-0.8,0.8-1.2,1.6-1.6l149.6-80.4
	c1.6-0.8,3.6-0.4,4.8,0.8c1.2,1.2,1.6,3.2,0.8,4.8l-80.4,149.6c-0.4,0.8-0.8,1.2-1.6,1.6l-149.6,80.4
	C140.4,372.8,140,372.8,139.2,372.8z M222.4,222.4l-73.6,136.8l136.8-73.6l73.6-136.8L222.4,222.4z"/>
<path d="M254,278c-13.2,0-24-10.8-24-24s10.8-24,24-24s24,10.8,24,24S267.2,278,254,278z M254,238c-8.8,0-16,7.2-16,16s7.2,16,16,16
	s16-7.2,16-16S262.8,238,254,238z"/>
<path d="M254,508C114,508,0,394,0,254S114,0,254,0s254,114,254,254S394,508,254,508z M254,8C118.4,8,8,118.4,8,254
	s110.4,246,246,246s246-110.4,246-246S389.6,8,254,8z"/>
<path d="M254,476.4c-122.4,0-222.4-99.6-222.4-222.4c0-122.4,99.6-222.4,222.4-222.4c52,0,102.4,18.4,142,51.6c1.6,1.6,2,4,0.4,5.6
	s-4,2-5.6,0.4c-38.4-32-87.2-49.6-137.2-49.6c-118,0-214.4,96-214.4,214.4c0,118,96,214.4,214.4,214.4c118,0,214.4-96,214.4-214.4
	c0-50-17.6-98.8-49.6-137.2c-1.6-1.6-1.2-4.4,0.4-5.6c1.6-1.6,4.4-1.2,5.6,0.4c33.2,40,51.6,90.4,51.6,142
	C476.4,376.4,376.4,476.4,254,476.4z"/>
<path d="M240,244c-1.2,0-2-0.4-2.8-1.2l-20.4-20.4c-1.6-1.6-1.6-4,0-5.6s4-1.6,5.6,0l20.4,20.4c1.6,1.6,1.6,4,0,5.6
	C242,243.6,240.8,244,240,244z"/>
<path d="M287.2,290.8c-1.2,0-2-0.4-2.8-1.2L266,271.2c-1.6-1.6-1.6-4,0-5.6s4-1.6,5.6,0L290,284c1.6,1.6,1.6,4,0,5.6
	C289.2,290.4,288,290.8,287.2,290.8z"/>
</svg>